<svg id="Layer_1" data-name="Layer 1" xmlns="http://www.w3.org/2000/svg" viewBox="0 0 70 65"><defs><style>.cls-1{fill:#4e5973;}</style></defs><title>Artboard 25</title><path class="cls-1" d="M50.5,33.7v23h-31v-23h31m2-2h-35v27h35v-27Z"/><path class="cls-1" d="M50.5,8.3v6h-31v-6h31m2-2h-35v10h35V6.3Z"/><path class="cls-1" d="M59.39,16.3a2.13,2.13,0,0,1,2.11,2.13V39a2.13,2.13,0,0,1-2.11,2.13H52.5V31.7h-35v9.44H10.61A2.13,2.13,0,0,1,8.5,39V18.43a2.13,2.13,0,0,1,2.11-2.13H59.39m0-2H10.61A4.13,4.13,0,0,0,6.5,18.43V39a4.13,4.13,0,0,0,4.11,4.13H17.5a2,2,0,0,0,2-2V33.7h31v7.44a2,2,0,0,0,2,2h6.89A4.13,4.13,0,0,0,63.5,39V18.43a4.13,4.13,0,0,0-4.11-4.13Z"/><rect class="cls-1" x="24.27" y="45.26" width="1.2" height="7.45"/><rect class="cls-1" x="26.3" y="45.26" width="1.66" height="7.45"/><rect class="cls-1" x="33.76" y="45.26" width="0.83" height="7.45"/><rect class="cls-1" x="35.41" y="45.26" width="1.66" height="7.45"/><rect class="cls-1" x="38.73" y="45.26" width="0.83" height="7.45"/><rect class="cls-1" x="40.38" y="45.26" width="1.66" height="7.45"/><rect class="cls-1" x="29.62" y="45.26" width="2.48" height="7.45"/><rect class="cls-1" x="42.87" y="45.26" width="2.86" height="7.45"/><circle class="cls-1" cx="13.8" cy="21.66" r="2.48"/><circle class="cls-1" cx="22.09" cy="21.66" r="2.48"/></svg>