<svg id="Layer_1" data-name="Layer 1" xmlns="http://www.w3.org/2000/svg" viewBox="0 0 70 65"><defs><style>.cls-1{fill:#525a72;}.cls-2{fill:#2c2c2c;stroke:#525a72;stroke-linecap:round;stroke-linejoin:round;stroke-width:2px;}</style></defs><title>Artboard 25 copy 2</title><path class="cls-1" d="M59.39,14.74a2.08,2.08,0,0,1,2.11,2V52.7a2.08,2.08,0,0,1-2.11,2H10.61a2.08,2.08,0,0,1-2.11-2V16.78a2.08,2.08,0,0,1,2.11-2H59.39m0-2H10.61a4.08,4.08,0,0,0-4.11,4V52.7a4.08,4.08,0,0,0,4.11,4H59.39a4.08,4.08,0,0,0,4.11-4V16.78a4.08,4.08,0,0,0-4.11-4Z"/><line class="cls-2" x1="8.5" y1="21.63" x2="61.5" y2="21.63"/><rect class="cls-1" x="13.75" y="30.13" width="6" height="6" transform="translate(33.5 66.27) rotate(180)"/><rect class="cls-1" x="25.92" y="30.13" width="6" height="6"/><rect class="cls-1" x="38.08" y="30.13" width="6" height="6"/><rect class="cls-1" x="50.25" y="30.13" width="6" height="6"/><rect class="cls-1" x="13.75" y="41.63" width="6" height="6"/><rect class="cls-1" x="25.92" y="41.63" width="6" height="6"/><rect class="cls-1" x="38.08" y="41.63" width="6" height="6"/><rect class="cls-1" x="50.25" y="41.63" width="6" height="6"/><rect class="cls-1" x="13.88" y="10.26" width="5.75" height="4" transform="translate(33.5 24.52) rotate(180)"/><rect class="cls-1" x="50.37" y="10.26" width="5.75" height="4"/></svg>